#!OML:ASF F:\VICON\USERDATA\INSTALL\rory3\rory3.ASF
:FULLY-SPECIFIED
:DEGREES
290
root 0.0305498 17.832 24.6875 -1.67298 1.17861 -0.130927
lowerback 9.58887 -1.12822 -1.77401
upperback 0.0218213 -1.59442 1.92854
thorax -5.25571 -0.716188 3.2377
lowerneck -17.0463 -2.38271 -2.08381
upperneck 20.1888 -2.79281 0.194512
head 9.19797 -1.44666 0.0535799
rclavicle 1.30949e-014 -9.54166e-015
rhumerus -31.8077 -28.5948 -74.5425
rradius 19.4958
rwrist 15.4431
rhand -17.0009 21.9625
rfingers 7.12502
rthumb 9.2345 -7.81524
lclavicle 1.30949e-014 -9.54166e-015
lhumerus -25.6344 -1.55776 84.3484
lradius 29.7244
lwrist 6.20042
lhand -28.2648 23.3002
lfingers 7.12502
lthumb -1.64166 53.2737
rfemur -25.553 4.16601 22.8822
rtibia 27.8399
rfoot -4.33159 -4.39428
rtoes -4.24019
lfemur 9.51923 -4.09345 -23.1543
ltibia 39.4253
lfoot 3.77441 -10.4796
ltoes -18.3005
291
root 0.0112509 17.8455 24.8897 -1.87027 1.31444 -0.345799
lowerback 9.70736 -1.13883 -1.50328
upperback 0.0752461 -1.57775 1.95615
thorax -5.27377 -0.714736 3.11385
lowerneck -16.992 -2.38658 -2.25777
upperneck 20.0522 -2.80611 0.432
head 9.1474 -1.43963 0.163423
rclavicle 4.49502e-014 -1.31198e-014
rhumerus -31.9433 -27.8298 -74.8293
rradius 19.9965
rwrist 14.488
rhand -16.7007 21.0655
rfingers 7.12502
rthumb 9.52416 -8.69928
lclavicle 4.49502e-014 -1.31198e-014
lhumerus -25.9797 -1.38729 84.407
lradius 29.519
lwrist 6.54981
lhand -26.3605 23.92
lfingers 7.12502
lthumb 0.197544 53.8996
rfemur -24.8031 3.79625 23.3246
rtibia 28.2495
rfoot -4.58155 -3.74766
rtoes -1.59577
lfemur 8.48723 -3.89436 -22.6493
ltibia 41.7847
lfoot 6.5494 -12.061
ltoes -17.3533
292
root -0.0124455 17.8872 25.091 -2.00237 1.47036 -0.833779
lowerback 9.74571 -1.18199 -1.0324
upperback 0.163063 -1.57756 2.05353
thorax -5.21299 -0.727049 2.94901
lowerneck -17.0617 -2.37795 -2.1303
upperneck 19.918 -2.82336 0.422446
head 9.11153 -1.43847 0.136911
rclavicle -1.86361e-014 1.15295e-014
rhumerus -31.9323 -27.4523 -75.0859
rradius 20.2835
rwrist 13.9309
rhand -16.8091 21.0441
rfingers 7.12502
rthumb 9.41957 -8.72543
lclavicle -1.86361e-014 1.15295e-014
lhumerus -26.3799 -0.888585 84.3169
lradius 29.7112
lwrist 6.25272
lhand -25.3559 25.0943
lfingers 7.12502
lthumb 1.16781 55.0708
rfemur -23.9282 3.62696 24.0501
rtibia 28.3386
rfoot -5.0089 -3.1296
rtoes 0.851385
lfemur 6.93256 -3.81168 -21.8567
ltibia 44.2118
lfoot 9.62391 -13.236
ltoes -11.7438
293
root -0.0390477 17.917 25.2896 -2.20141 1.47036 -1.63009
lowerback 9.84418 -1.17428 -0.341432
upperback 0.302714 -1.47812 2.28506
thorax -5.13897 -0.694067 2.78751
lowerneck -17.5369 -2.44561 -2.09682
upperneck 20.1282 -2.90951 0.393234
head 9.27127 -1.4775 0.103196
rclavicle -4.72114e-015 -1.98785e-015
rhumerus -31.7833 -27.4845 -75.1236
rradius 20.2952
rwrist 13.707
rhand -16.7697 21.5347
rfingers 7.12502
rthumb 9.45757 -8.23304
lclavicle -4.72114e-015 -1.98785e-015
lhumerus -26.6823 -0.578989 84.3586
lradius 29.8764
lwrist 5.98206
lhand -25.5659 25.5186
lfingers 7.12502
lthumb 0.96502 55.4962
rfemur -22.9626 3.5841 25.1748
rtibia 28.2439
rfoot -5.42852 -2.91054
rtoes 2.08234
lfemur 5.73629 -3.72052 -20.7146
ltibia 46.7642
lfoot 11.6637 -14.4775
ltoes -8.23838
294
root -0.0604724 17.9432 25.4881 -2.36306 1.36277 -2.15476
lowerback 9.89101 -1.11723 0.154423
upperback 0.351067 -1.3401 2.40113
thorax -5.13013 -0.636787 2.61024
lowerneck -17.6116 -2.51243 -2.07081
upperneck 20.1846 -3.00714 0.388679
head 9.30525 -1.52118 0.0832191
rclavicle 1.08586e-014 1.03368e-014
rhumerus -31.7624 -27.7339 -74.9693
rradius 20.0242
rwrist 13.7887
rhand -16.5365 22.2587
rfingers 7.12502
rthumb 9.68255 -7.49876
lclavicle 1.08586e-014 1.03368e-014
lhumerus -27.1 -0.871479 84.4942
lradius 29.9455
lwrist 6.3421
lhand -25.6247 26.282
lfingers 7.12502
lthumb 0.908228 56.2598
rfemur -21.9826 3.5665 25.9881
rtibia 27.9909
rfoot -5.58107 -3.12779
rtoes 2.7503
lfemur 4.37337 -3.50974 -19.9113
ltibia 49.3408
lfoot 13.9998 -15.5985
ltoes -3.50212
295
root -0.0822795 17.9663 25.6746 -2.33053 1.34558 -2.39634
lowerback 9.88355 -1.08264 0.265688
upperback 0.282355 -1.27379 2.52001
thorax -5.20075 -0.604412 2.66412
lowerneck -17.6175 -2.49848 -2.04846
upperneck 20.2812 -2.97734 0.314791
head 9.33804 -1.51393 0.0573139
rclavicle -3.67752e-015 -8.74653e-015
rhumerus -31.6327 -27.8879 -74.7312
rradius 19.5403
rwrist 13.9991
rhand -16.6598 22.4122
rfingers 7.12502
rthumb 9.56357 -7.35077
lclavicle -3.67752e-015 -8.74653e-015
lhumerus -27.4902 -1.28737 84.7825
lradius 29.8018
lwrist 6.99893
lhand -25.7983 25.5526
lfingers 7.12502
lthumb 0.740559 55.531
rfemur -21.2958 3.54656 26.4483
rtibia 27.8104
rfoot -5.41154 -3.37036
rtoes 4.51545
lfemur 2.69387 -3.4065 -19.4436
ltibia 51.8495
lfoot 15.7862 -16.6564
ltoes 0.197673
296
root -0.107187 17.9816 25.858 -2.38635 1.29669 -2.82646
lowerback 10.0201 -1.01044 0.533917
upperback 0.283526 -1.1351 2.68792
thorax -5.28429 -0.539849 2.67302
lowerneck -17.7184 -2.50993 -2.0482
upperneck 20.2907 -2.97374 0.243496
head 9.35865 -1.51986 0.0318592
rclavicle -5.93869e-015 -1.86858e-014
rhumerus -31.444 -27.8281 -74.6706
rradius 19.333
rwrist 13.9358
rhand -16.7771 21.9435
rfingers 7.12502
rthumb 9.45043 -7.8246
lclavicle -5.93869e-015 -1.86858e-014
lhumerus -27.7513 -1.57229 85.073
lradius 29.5868
lwrist 7.21975
lhand -26.4709 24.2602
lfingers 7.12502
lthumb 0.0909368 54.2399
rfemur -20.5041 3.66663 27.1171
rtibia 27.723
rfoot -5.28537 -3.49112
rtoes 6.41186
lfemur 1.14439 -3.18385 -18.7276
ltibia 54.216
lfoot 16.473 -17.3965
ltoes 2.51449
297
root -0.125289 17.9973 26.0452 -2.50073 1.171 -3.21258
lowerback 10.184 -0.885903 0.909667
upperback 0.30714 -0.918176 2.76143
thorax -5.36543 -0.440845 2.51045
lowerneck -17.6182 -2.56189 -2.12268
upperneck 20.1192 -3.06496 0.41065
head 9.28576 -1.54934 0.0920976
rclavicle 1.88845e-014 9.93923e-015
rhumerus -31.3469 -27.2586 -74.9587
rradius 19.5956
rwrist 13.2667
rhand -16.8227 21.5604
rfingers 7.12502
rthumb 9.40639 -8.20971
lclavicle 1.88845e-014 9.93923e-015
lhumerus -27.8692 -2.03385 85.3109
lradius 29.0556
lwrist 7.25822
lhand -26.5154 23.8902
lfingers 7.12502
lthumb 0.04796 53.8699
rfemur -19.5861 3.69762 27.7256
rtibia 27.6464
rfoot -5.71686 -3.38458
rtoes 6.63226
lfemur -0.125607 -2.85554 -18.122
ltibia 56.4104
lfoot 15.8018 -17.6775
ltoes 1.96911
